<mxfile host="app.diagrams.net" agent="Mozilla/5.0 (Windows NT 10.0; Win64; x64) AppleWebKit/537.36 (KHTML, like Gecko) Chrome/127.0.0.0 Safari/537.36 Edg/127.0.0.0" version="24.7.7">
  <diagram name="第 1 页" id="JpJuvLmKtG-MRXJeiW7m">
    <mxGraphModel dx="1426" dy="-36" grid="1" gridSize="10" guides="1" tooltips="1" connect="1" arrows="1" fold="1" page="1" pageScale="1" pageWidth="1169" pageHeight="827" math="0" shadow="0">
      <root>
        <mxCell id="0" />
        <mxCell id="1" parent="0" />
        <mxCell id="MxfFoUVx61xuFkuIelYx-3" value="提示词向量&lt;div&gt;及需求参数码流&lt;/div&gt;" style="rounded=1;whiteSpace=wrap;html=1;" parent="1" vertex="1">
          <mxGeometry x="540" y="1560" width="120" height="60" as="geometry" />
        </mxCell>
        <mxCell id="tYisujq_Tc-ig6ptFAuq-2" style="edgeStyle=orthogonalEdgeStyle;rounded=0;orthogonalLoop=1;jettySize=auto;html=1;entryX=0.5;entryY=0;entryDx=0;entryDy=0;" parent="1" source="MxfFoUVx61xuFkuIelYx-4" target="MxfFoUVx61xuFkuIelYx-40" edge="1">
          <mxGeometry relative="1" as="geometry" />
        </mxCell>
        <mxCell id="MxfFoUVx61xuFkuIelYx-4" value="原始语义信息&lt;br&gt;视频片段" style="rounded=1;whiteSpace=wrap;html=1;" parent="1" vertex="1">
          <mxGeometry x="929.5" y="980" width="120" height="60" as="geometry" />
        </mxCell>
        <mxCell id="tYisujq_Tc-ig6ptFAuq-1" style="edgeStyle=orthogonalEdgeStyle;rounded=0;orthogonalLoop=1;jettySize=auto;html=1;entryX=0.5;entryY=0;entryDx=0;entryDy=0;" parent="1" source="MxfFoUVx61xuFkuIelYx-5" target="MxfFoUVx61xuFkuIelYx-7" edge="1">
          <mxGeometry relative="1" as="geometry" />
        </mxCell>
        <mxCell id="MxfFoUVx61xuFkuIelYx-5" value="表征指导向量" style="rounded=1;whiteSpace=wrap;html=1;" parent="1" vertex="1">
          <mxGeometry x="540" y="1280" width="120" height="60" as="geometry" />
        </mxCell>
        <mxCell id="MxfFoUVx61xuFkuIelYx-7" value="相位权重编码" style="rounded=0;whiteSpace=wrap;html=1;" parent="1" vertex="1">
          <mxGeometry x="540" y="1420" width="120" height="60" as="geometry" />
        </mxCell>
        <mxCell id="MxfFoUVx61xuFkuIelYx-22" value="&lt;div style=&quot;text-align: center;&quot;&gt;&lt;span style=&quot;background-color: initial;&quot;&gt;视频多路径特征提取&lt;/span&gt;&lt;/div&gt;" style="text;whiteSpace=wrap;html=1;" parent="1" vertex="1">
          <mxGeometry x="939" y="1770" width="110" height="40" as="geometry" />
        </mxCell>
        <mxCell id="MxfFoUVx61xuFkuIelYx-40" value="" style="rounded=0;whiteSpace=wrap;html=1;" parent="1" vertex="1">
          <mxGeometry x="920" y="1130" width="139" height="620" as="geometry" />
        </mxCell>
        <mxCell id="MxfFoUVx61xuFkuIelYx-41" value="边缘信息描述子" style="rounded=0;whiteSpace=wrap;html=1;" parent="1" vertex="1">
          <mxGeometry x="929" y="1200" width="120" height="60" as="geometry" />
        </mxCell>
        <mxCell id="MxfFoUVx61xuFkuIelYx-55" style="edgeStyle=orthogonalEdgeStyle;rounded=0;orthogonalLoop=1;jettySize=auto;html=1;" parent="1" edge="1">
          <mxGeometry relative="1" as="geometry">
            <mxPoint x="1150" y="1169.9" as="targetPoint" />
            <mxPoint x="1070" y="1169.51" as="sourcePoint" />
            <Array as="points">
              <mxPoint x="1110" y="1169.51" />
              <mxPoint x="1110" y="1169.51" />
            </Array>
          </mxGeometry>
        </mxCell>
        <mxCell id="MxfFoUVx61xuFkuIelYx-42" value="&lt;b&gt;视频内容理解&lt;/b&gt;&lt;div&gt;&lt;b&gt;模块&lt;/b&gt;&lt;/div&gt;" style="rounded=0;whiteSpace=wrap;html=1;" parent="1" vertex="1">
          <mxGeometry x="929" y="1140" width="120" height="60" as="geometry" />
        </mxCell>
        <mxCell id="MxfFoUVx61xuFkuIelYx-44" value="语义控制&lt;div&gt;特征提取模块&lt;/div&gt;" style="rounded=0;whiteSpace=wrap;html=1;" parent="1" vertex="1">
          <mxGeometry x="929" y="1380" width="120" height="60" as="geometry" />
        </mxCell>
        <mxCell id="MxfFoUVx61xuFkuIelYx-45" value="语义超分辨率&lt;div&gt;特征提取模块&lt;/div&gt;" style="rounded=0;whiteSpace=wrap;html=1;" parent="1" vertex="1">
          <mxGeometry x="929" y="1500" width="120" height="60" as="geometry" />
        </mxCell>
        <mxCell id="MxfFoUVx61xuFkuIelYx-46" value="语义抽取模块" style="rounded=0;whiteSpace=wrap;html=1;" parent="1" vertex="1">
          <mxGeometry x="929" y="1320" width="120" height="60" as="geometry" />
        </mxCell>
        <mxCell id="MxfFoUVx61xuFkuIelYx-48" value="&lt;div&gt;个性化风格&lt;/div&gt;&lt;div&gt;特征提取模块&lt;/div&gt;" style="rounded=0;whiteSpace=wrap;html=1;" parent="1" vertex="1">
          <mxGeometry x="929" y="1620" width="120" height="60" as="geometry" />
        </mxCell>
        <mxCell id="MxfFoUVx61xuFkuIelYx-51" value="&lt;div&gt;运动信息描述子&lt;/div&gt;" style="rounded=0;whiteSpace=wrap;html=1;" parent="1" vertex="1">
          <mxGeometry x="929" y="1260" width="120" height="60" as="geometry" />
        </mxCell>
        <mxCell id="MxfFoUVx61xuFkuIelYx-52" value="&lt;div&gt;语义内部一致性&lt;/div&gt;&lt;div&gt;特征&lt;span style=&quot;background-color: initial;&quot;&gt;提取模块&lt;/span&gt;&lt;/div&gt;" style="rounded=0;whiteSpace=wrap;html=1;" parent="1" vertex="1">
          <mxGeometry x="929" y="1440" width="120" height="60" as="geometry" />
        </mxCell>
        <mxCell id="MxfFoUVx61xuFkuIelYx-53" value="&lt;div&gt;视频基础信息读取&lt;/div&gt;&lt;div&gt;及基础控制参数微调模块&lt;/div&gt;" style="rounded=0;whiteSpace=wrap;html=1;" parent="1" vertex="1">
          <mxGeometry x="929" y="1680" width="120" height="60" as="geometry" />
        </mxCell>
        <mxCell id="MxfFoUVx61xuFkuIelYx-54" value="&lt;span style=&quot;color: rgb(0, 0, 0); font-family: Helvetica; font-size: 12px; font-style: normal; font-variant-ligatures: normal; font-variant-caps: normal; font-weight: 400; letter-spacing: normal; orphans: 2; text-indent: 0px; text-transform: none; widows: 2; word-spacing: 0px; -webkit-text-stroke-width: 0px; white-space: normal; background-color: rgb(251, 251, 251); text-decoration-thickness: initial; text-decoration-style: initial; text-decoration-color: initial; float: none; display: inline !important;&quot;&gt;多嵌入特征信息&lt;/span&gt;&lt;div&gt;&lt;span style=&quot;color: rgb(0, 0, 0); font-family: Helvetica; font-size: 12px; font-style: normal; font-variant-ligatures: normal; font-variant-caps: normal; font-weight: 400; letter-spacing: normal; orphans: 2; text-indent: 0px; text-transform: none; widows: 2; word-spacing: 0px; -webkit-text-stroke-width: 0px; white-space: normal; background-color: rgb(251, 251, 251); text-decoration-thickness: initial; text-decoration-style: initial; text-decoration-color: initial; float: none; display: inline !important;&quot;&gt;表征块&lt;/span&gt;&lt;/div&gt;" style="text;whiteSpace=wrap;html=1;align=center;" parent="1" vertex="1">
          <mxGeometry x="1173.5" y="1770" width="111" height="40" as="geometry" />
        </mxCell>
        <mxCell id="MxfFoUVx61xuFkuIelYx-57" value="" style="endArrow=classic;html=1;rounded=0;exitX=1;exitY=0.5;exitDx=0;exitDy=0;" parent="1" source="MxfFoUVx61xuFkuIelYx-7" edge="1">
          <mxGeometry width="50" height="50" relative="1" as="geometry">
            <mxPoint x="850" y="1160" as="sourcePoint" />
            <mxPoint x="900" y="1170" as="targetPoint" />
          </mxGeometry>
        </mxCell>
        <mxCell id="MxfFoUVx61xuFkuIelYx-64" value="" style="endArrow=classic;html=1;rounded=0;dashed=1;dashPattern=8 8;exitX=1;exitY=0.5;exitDx=0;exitDy=0;" parent="1" source="MxfFoUVx61xuFkuIelYx-7" edge="1">
          <mxGeometry width="50" height="50" relative="1" as="geometry">
            <mxPoint x="790" y="1450" as="sourcePoint" />
            <mxPoint x="900" y="1240" as="targetPoint" />
          </mxGeometry>
        </mxCell>
        <mxCell id="MxfFoUVx61xuFkuIelYx-65" value="" style="endArrow=classic;html=1;rounded=0;dashed=1;dashPattern=8 8;exitX=1;exitY=0.5;exitDx=0;exitDy=0;" parent="1" source="MxfFoUVx61xuFkuIelYx-7" edge="1">
          <mxGeometry width="50" height="50" relative="1" as="geometry">
            <mxPoint x="790" y="1790" as="sourcePoint" />
            <mxPoint x="900" y="1300" as="targetPoint" />
          </mxGeometry>
        </mxCell>
        <mxCell id="MxfFoUVx61xuFkuIelYx-66" value="" style="endArrow=classic;html=1;rounded=0;dashed=1;dashPattern=8 8;exitX=1;exitY=0.5;exitDx=0;exitDy=0;" parent="1" source="MxfFoUVx61xuFkuIelYx-7" edge="1">
          <mxGeometry width="50" height="50" relative="1" as="geometry">
            <mxPoint x="790" y="1850" as="sourcePoint" />
            <mxPoint x="900" y="1410" as="targetPoint" />
          </mxGeometry>
        </mxCell>
        <mxCell id="MxfFoUVx61xuFkuIelYx-67" value="" style="endArrow=classic;html=1;rounded=0;dashed=1;dashPattern=8 8;exitX=1;exitY=0.5;exitDx=0;exitDy=0;" parent="1" source="MxfFoUVx61xuFkuIelYx-7" edge="1">
          <mxGeometry width="50" height="50" relative="1" as="geometry">
            <mxPoint x="790" y="1910" as="sourcePoint" />
            <mxPoint x="900" y="1470" as="targetPoint" />
          </mxGeometry>
        </mxCell>
        <mxCell id="MxfFoUVx61xuFkuIelYx-68" value="" style="endArrow=classic;html=1;rounded=0;dashed=1;dashPattern=8 8;exitX=1;exitY=0.5;exitDx=0;exitDy=0;" parent="1" source="MxfFoUVx61xuFkuIelYx-7" edge="1">
          <mxGeometry width="50" height="50" relative="1" as="geometry">
            <mxPoint x="790" y="1550" as="sourcePoint" />
            <mxPoint x="900" y="1350" as="targetPoint" />
          </mxGeometry>
        </mxCell>
        <mxCell id="MxfFoUVx61xuFkuIelYx-69" value="" style="endArrow=classic;html=1;rounded=0;dashed=1;dashPattern=8 8;exitX=1;exitY=0.5;exitDx=0;exitDy=0;" parent="1" source="MxfFoUVx61xuFkuIelYx-7" edge="1">
          <mxGeometry width="50" height="50" relative="1" as="geometry">
            <mxPoint x="800" y="1610" as="sourcePoint" />
            <mxPoint x="900" y="1530" as="targetPoint" />
          </mxGeometry>
        </mxCell>
        <mxCell id="MxfFoUVx61xuFkuIelYx-70" value="" style="endArrow=classic;html=1;rounded=0;dashed=1;dashPattern=8 8;exitX=1;exitY=0.5;exitDx=0;exitDy=0;" parent="1" source="MxfFoUVx61xuFkuIelYx-7" edge="1">
          <mxGeometry width="50" height="50" relative="1" as="geometry">
            <mxPoint x="790" y="1640" as="sourcePoint" />
            <mxPoint x="900" y="1590" as="targetPoint" />
          </mxGeometry>
        </mxCell>
        <mxCell id="MxfFoUVx61xuFkuIelYx-72" style="edgeStyle=orthogonalEdgeStyle;rounded=0;orthogonalLoop=1;jettySize=auto;html=1;dashed=1;" parent="1" edge="1">
          <mxGeometry relative="1" as="geometry">
            <mxPoint x="1150" y="1229.93" as="targetPoint" />
            <mxPoint x="1070" y="1229.54" as="sourcePoint" />
            <Array as="points">
              <mxPoint x="1110" y="1229.54" />
              <mxPoint x="1110" y="1229.54" />
            </Array>
          </mxGeometry>
        </mxCell>
        <mxCell id="MxfFoUVx61xuFkuIelYx-73" style="edgeStyle=orthogonalEdgeStyle;rounded=0;orthogonalLoop=1;jettySize=auto;html=1;dashed=1;" parent="1" edge="1">
          <mxGeometry relative="1" as="geometry">
            <mxPoint x="1150" y="1289.89" as="targetPoint" />
            <mxPoint x="1070" y="1289.5" as="sourcePoint" />
            <Array as="points">
              <mxPoint x="1110" y="1289.5" />
              <mxPoint x="1110" y="1289.5" />
            </Array>
          </mxGeometry>
        </mxCell>
        <mxCell id="MxfFoUVx61xuFkuIelYx-74" style="edgeStyle=orthogonalEdgeStyle;rounded=0;orthogonalLoop=1;jettySize=auto;html=1;dashed=1;" parent="1" edge="1">
          <mxGeometry relative="1" as="geometry">
            <mxPoint x="1150" y="1349.89" as="targetPoint" />
            <mxPoint x="1070" y="1349.4999999999998" as="sourcePoint" />
            <Array as="points">
              <mxPoint x="1110" y="1349.4999999999998" />
              <mxPoint x="1110" y="1349.4999999999998" />
            </Array>
          </mxGeometry>
        </mxCell>
        <mxCell id="MxfFoUVx61xuFkuIelYx-75" style="edgeStyle=orthogonalEdgeStyle;rounded=0;orthogonalLoop=1;jettySize=auto;html=1;dashed=1;" parent="1" edge="1">
          <mxGeometry relative="1" as="geometry">
            <mxPoint x="1150" y="1409.89" as="targetPoint" />
            <mxPoint x="1070" y="1409.5" as="sourcePoint" />
            <Array as="points">
              <mxPoint x="1110" y="1409.5" />
              <mxPoint x="1110" y="1409.5" />
            </Array>
          </mxGeometry>
        </mxCell>
        <mxCell id="MxfFoUVx61xuFkuIelYx-76" style="edgeStyle=orthogonalEdgeStyle;rounded=0;orthogonalLoop=1;jettySize=auto;html=1;dashed=1;" parent="1" edge="1">
          <mxGeometry relative="1" as="geometry">
            <mxPoint x="1150" y="1469.89" as="targetPoint" />
            <mxPoint x="1070" y="1469.5" as="sourcePoint" />
            <Array as="points">
              <mxPoint x="1110" y="1469.5" />
              <mxPoint x="1110" y="1469.5" />
            </Array>
          </mxGeometry>
        </mxCell>
        <mxCell id="MxfFoUVx61xuFkuIelYx-77" style="edgeStyle=orthogonalEdgeStyle;rounded=0;orthogonalLoop=1;jettySize=auto;html=1;dashed=1;" parent="1" edge="1">
          <mxGeometry relative="1" as="geometry">
            <mxPoint x="1150" y="1529.89" as="targetPoint" />
            <mxPoint x="1070" y="1529.5" as="sourcePoint" />
            <Array as="points">
              <mxPoint x="1110" y="1529.5" />
              <mxPoint x="1110" y="1529.5" />
            </Array>
          </mxGeometry>
        </mxCell>
        <mxCell id="MxfFoUVx61xuFkuIelYx-78" style="edgeStyle=orthogonalEdgeStyle;rounded=0;orthogonalLoop=1;jettySize=auto;html=1;dashed=1;" parent="1" edge="1">
          <mxGeometry relative="1" as="geometry">
            <mxPoint x="1150" y="1589.89" as="targetPoint" />
            <mxPoint x="1070" y="1589.5" as="sourcePoint" />
            <Array as="points">
              <mxPoint x="1110" y="1589.5" />
              <mxPoint x="1110" y="1589.5" />
            </Array>
          </mxGeometry>
        </mxCell>
        <mxCell id="MxfFoUVx61xuFkuIelYx-79" style="edgeStyle=orthogonalEdgeStyle;rounded=0;orthogonalLoop=1;jettySize=auto;html=1;dashed=1;" parent="1" edge="1">
          <mxGeometry relative="1" as="geometry">
            <mxPoint x="1150" y="1649.89" as="targetPoint" />
            <mxPoint x="1070" y="1649.5" as="sourcePoint" />
            <Array as="points">
              <mxPoint x="1110" y="1649.5" />
              <mxPoint x="1110" y="1649.5" />
            </Array>
          </mxGeometry>
        </mxCell>
        <mxCell id="MxfFoUVx61xuFkuIelYx-80" style="edgeStyle=orthogonalEdgeStyle;rounded=0;orthogonalLoop=1;jettySize=auto;html=1;dashed=1;" parent="1" edge="1">
          <mxGeometry relative="1" as="geometry">
            <mxPoint x="1150" y="1709.89" as="targetPoint" />
            <mxPoint x="1070" y="1709.5" as="sourcePoint" />
            <Array as="points">
              <mxPoint x="1110" y="1709.5" />
              <mxPoint x="1110" y="1709.5" />
            </Array>
          </mxGeometry>
        </mxCell>
        <mxCell id="tYisujq_Tc-ig6ptFAuq-3" style="edgeStyle=orthogonalEdgeStyle;rounded=0;orthogonalLoop=1;jettySize=auto;html=1;entryX=0.5;entryY=1;entryDx=0;entryDy=0;" parent="1" source="MxfFoUVx61xuFkuIelYx-3" target="MxfFoUVx61xuFkuIelYx-7" edge="1">
          <mxGeometry relative="1" as="geometry" />
        </mxCell>
        <mxCell id="tYisujq_Tc-ig6ptFAuq-9" style="edgeStyle=orthogonalEdgeStyle;rounded=0;orthogonalLoop=1;jettySize=auto;html=1;entryX=0;entryY=0.5;entryDx=0;entryDy=0;" parent="1" source="tYisujq_Tc-ig6ptFAuq-5" target="tYisujq_Tc-ig6ptFAuq-8" edge="1">
          <mxGeometry relative="1" as="geometry" />
        </mxCell>
        <mxCell id="tYisujq_Tc-ig6ptFAuq-5" value="原始语义信息&lt;br&gt;视频" style="rounded=1;whiteSpace=wrap;html=1;" parent="1" vertex="1">
          <mxGeometry x="550" y="980" width="120" height="60" as="geometry" />
        </mxCell>
        <mxCell id="tYisujq_Tc-ig6ptFAuq-10" style="edgeStyle=orthogonalEdgeStyle;rounded=0;orthogonalLoop=1;jettySize=auto;html=1;entryX=0;entryY=0.5;entryDx=0;entryDy=0;" parent="1" source="tYisujq_Tc-ig6ptFAuq-8" target="MxfFoUVx61xuFkuIelYx-4" edge="1">
          <mxGeometry relative="1" as="geometry" />
        </mxCell>
        <mxCell id="tYisujq_Tc-ig6ptFAuq-8" value="视频分段判别器" style="rounded=0;whiteSpace=wrap;html=1;" parent="1" vertex="1">
          <mxGeometry x="740" y="980" width="120" height="60" as="geometry" />
        </mxCell>
        <mxCell id="t_GLIvbP3oK162fX5fWq-1" value="&lt;div&gt;语义微调模块&lt;/div&gt;" style="rounded=0;whiteSpace=wrap;html=1;" parent="1" vertex="1">
          <mxGeometry x="929" y="1560" width="120" height="60" as="geometry" />
        </mxCell>
        <mxCell id="8XPtbsdvWMlHpr7r8fQ2-1" value="" style="endArrow=classic;html=1;rounded=0;dashed=1;dashPattern=8 8;exitX=1;exitY=0.5;exitDx=0;exitDy=0;" edge="1" parent="1" source="MxfFoUVx61xuFkuIelYx-7">
          <mxGeometry width="50" height="50" relative="1" as="geometry">
            <mxPoint x="670" y="1460" as="sourcePoint" />
            <mxPoint x="900" y="1650" as="targetPoint" />
          </mxGeometry>
        </mxCell>
        <mxCell id="8XPtbsdvWMlHpr7r8fQ2-2" value="" style="endArrow=classic;html=1;rounded=0;dashed=1;dashPattern=8 8;exitX=1;exitY=0.5;exitDx=0;exitDy=0;" edge="1" parent="1" source="MxfFoUVx61xuFkuIelYx-7">
          <mxGeometry width="50" height="50" relative="1" as="geometry">
            <mxPoint x="680" y="1470" as="sourcePoint" />
            <mxPoint x="900" y="1720" as="targetPoint" />
          </mxGeometry>
        </mxCell>
        <mxCell id="8XPtbsdvWMlHpr7r8fQ2-3" value="" style="rounded=0;whiteSpace=wrap;html=1;" vertex="1" parent="1">
          <mxGeometry x="1160" y="1130" width="139" height="620" as="geometry" />
        </mxCell>
        <mxCell id="8XPtbsdvWMlHpr7r8fQ2-4" value="边缘信息特征图" style="rounded=0;whiteSpace=wrap;html=1;" vertex="1" parent="1">
          <mxGeometry x="1169" y="1200" width="120" height="60" as="geometry" />
        </mxCell>
        <mxCell id="8XPtbsdvWMlHpr7r8fQ2-5" value="&lt;b&gt;表征提示词&lt;/b&gt;" style="rounded=0;whiteSpace=wrap;html=1;" vertex="1" parent="1">
          <mxGeometry x="1169" y="1140" width="120" height="60" as="geometry" />
        </mxCell>
        <mxCell id="8XPtbsdvWMlHpr7r8fQ2-6" value="语义控制&lt;span style=&quot;background-color: initial;&quot;&gt;特征图&lt;/span&gt;" style="rounded=0;whiteSpace=wrap;html=1;" vertex="1" parent="1">
          <mxGeometry x="1169" y="1380" width="120" height="60" as="geometry" />
        </mxCell>
        <mxCell id="8XPtbsdvWMlHpr7r8fQ2-7" value="语义超分辨率&lt;div&gt;特征图&lt;/div&gt;" style="rounded=0;whiteSpace=wrap;html=1;" vertex="1" parent="1">
          <mxGeometry x="1169" y="1500" width="120" height="60" as="geometry" />
        </mxCell>
        <mxCell id="8XPtbsdvWMlHpr7r8fQ2-8" value="语义特征图" style="rounded=0;whiteSpace=wrap;html=1;" vertex="1" parent="1">
          <mxGeometry x="1169" y="1320" width="120" height="60" as="geometry" />
        </mxCell>
        <mxCell id="8XPtbsdvWMlHpr7r8fQ2-9" value="&lt;div&gt;个性化风格&lt;/div&gt;&lt;div&gt;特征向量&lt;/div&gt;" style="rounded=0;whiteSpace=wrap;html=1;" vertex="1" parent="1">
          <mxGeometry x="1169" y="1620" width="120" height="60" as="geometry" />
        </mxCell>
        <mxCell id="8XPtbsdvWMlHpr7r8fQ2-10" value="&lt;div&gt;运动信息特征图&lt;/div&gt;" style="rounded=0;whiteSpace=wrap;html=1;" vertex="1" parent="1">
          <mxGeometry x="1169" y="1260" width="120" height="60" as="geometry" />
        </mxCell>
        <mxCell id="8XPtbsdvWMlHpr7r8fQ2-11" value="&lt;div&gt;语义内部一致性&lt;/div&gt;&lt;div&gt;特征图&lt;/div&gt;" style="rounded=0;whiteSpace=wrap;html=1;" vertex="1" parent="1">
          <mxGeometry x="1169" y="1440" width="120" height="60" as="geometry" />
        </mxCell>
        <mxCell id="8XPtbsdvWMlHpr7r8fQ2-12" value="&lt;div&gt;基础控制参数&lt;/div&gt;" style="rounded=0;whiteSpace=wrap;html=1;" vertex="1" parent="1">
          <mxGeometry x="1169" y="1680" width="120" height="60" as="geometry" />
        </mxCell>
        <mxCell id="8XPtbsdvWMlHpr7r8fQ2-13" value="&lt;div&gt;语义微调特征向量&lt;/div&gt;" style="rounded=0;whiteSpace=wrap;html=1;" vertex="1" parent="1">
          <mxGeometry x="1169" y="1560" width="120" height="60" as="geometry" />
        </mxCell>
      </root>
    </mxGraphModel>
  </diagram>
</mxfile>
